PathFileType	4	(X/Y/Z)	/Users/itak/Documents/Research/Walk-IL/dataset/trc/00277_00010.trc
DataRate	CameraRate	NumFrames	NumMarkers	Units	OrigDataRate	OrigDataStartFrame	OrigNumFrames
100.000000	100.000000	4	53	mm	100.000000	588	672
Frame#	Time	RPSI			LPSI			L3			STRN			T10			C7			CLAV			RBAK			LBAK			LSHO			LUPA			LAEL			LAOL			LWTS			LWPS			LFRA			LIFD			LHPS			LHTS			RSHO			RUPA			RAEL			RAOL			RWTS			RWPS			RFRA			RIFD			RHTS			RHPS			RBHD			LFHD			RFHD			LBHD			LHIP			RHIP			RASI			LASI			LKNE			LTHI			LANK			LTIP			LTOE			LMT1			LMT5			LHEE			RKNE			RTHI			RANK			RTIP			RTOE			RMT1			RMT5			RHEE			
		X1	Y1	Z1	X2	Y2	Z2	X3	Y3	Z3	X4	Y4	Z4	X5	Y5	Z5	X6	Y6	Z6	X7	Y7	Z7	X8	Y8	Z8	X9	Y9	Z9	X10	Y10	Z10	X11	Y11	Z11	X12	Y12	Z12	X13	Y13	Z13	X14	Y14	Z14	X15	Y15	Z15	X16	Y16	Z16	X17	Y17	Z17	X18	Y18	Z18	X19	Y19	Z19	X20	Y20	Z20	X21	Y21	Z21	X22	Y22	Z22	X23	Y23	Z23	X24	Y24	Z24	X25	Y25	Z25	X26	Y26	Z26	X27	Y27	Z27	X28	Y28	Z28	X29	Y29	Z29	X30	Y30	Z30	X31	Y31	Z31	X32	Y32	Z32	X33	Y33	Z33	X34	Y34	Z34	X35	Y35	Z35	X36	Y36	Z36	X37	Y37	Z37	X38	Y38	Z38	X39	Y39	Z39	X40	Y40	Z40	X41	Y41	Z41	X42	Y42	Z42	X43	Y43	Z43	X44	Y44	Z44	X45	Y45	Z45	X46	Y46	Z46	X47	Y47	Z47	X48	Y48	Z48	X49	Y49	Z49	X50	Y50	Z50	X51	Y51	Z51	X52	Y52	Z52	X53	Y53	Z53	

589	5.88	-472.4468383789062	1004.662780761719	1035.2421875	-392.5323486328125	978.0095825195312	881.6174926757812	-419.1297607421875	1067.704956054688	965.427978515625	-179.4014892578125	1244.221801757812	1064.067260742188	-429.3873596191406	1187.888305664062	966.843017578125	-377.3319091796875	1431.918579101562	975.075439453125	-236.1298370361328	1344.7724609375	1038.931762695312	-456.0700988769531	1294.794799804688	1026.571411132812	-354.4342346191406	1398.282104492188	871.9548950195312	-249.7319488525391	1403.245971679688	858.6729736328125	-257.1489868164062	1289.608642578125	774.956787109375	-268.723388671875	1087.004516601562	766.0844116210938	-353.6355590820312	1080.52783203125	788.9024047851562	-241.6881408691406	863.4784545898438	850.6160278320312	-228.6858673095703	853.12451171875	781.5994873046875	-257.4459533691406	982.8793334960938	766.1434936523438	-246.4014892578125	676.305419921875	849.8236083984375	-228.7534027099609	764.7261962890625	784.1998901367188	-216.2647705078125	764.1544189453125	849.2949829101562	-371.2695007324219	1407.673706054688	1147.28564453125	-403.9960632324219	1352.44384765625	1206.082275390625	-437.5917358398438	1098.16796875	1285.164306640625	-420.4892272949219	1071.905517578125	1197.0595703125	-298.8537292480469	908.9768676757812	1360.480590820312	-378.0675659179688	898.1861572265625	1390.8974609375	-421.638916015625	1039.468872070312	1323.195434570312	-263.0913696289062	736.8838500976562	1418.695556640625	-269.2600708007812	812.6918334960938	1427.258178710938	-338.1570434570312	800.8633422851562	1434.396240234375	-384.1407470703125	1579.46435546875	1068.303344726562	-179.3550872802734	1627.242919921875	1031.390991210938	-216.89453125	1616.874389648438	1115.379028320312	-323.4428100585938	1586.4580078125	936.8030395507812	-276.4740905761719	935.0482788085938	835.8341674804688	-425.9869384765625	964.3388671875	1177.744995117188	-287.0464172363281	968.0303955078125	1166.754516601562	-186.2971954345703	951.6359252929688	937.8742065429688	-108.8155517578125	498.3686218261719	953.90087890625	-150.6323547363281	630.6635131835938	912.8765258789062	-386.3994750976562	168.6911010742188	820.4664306640625	-235.6181640625	323.9999694824219	881.8016357421875	-301.2848815917969	55.13260650634766	974.6897583007812	-372.8748474121094	86.22834777832031	964.4507446289062	-308.3327331542969	90.00405120849609	874.36962890625	-451.3327941894531	197.3381042480469	840.0968017578125	-352.4779052734375	494.0738525390625	1186.728881835938	-361.956787109375	760.0003662109375	1212.40380859375	-384.1724853515625	46.30020523071289	1136.50048828125	-333.4695739746094	370.3072814941406	1182.204711914062	-184.9011077880859	45.52812957763672	1179.119262695312	-219.0807952880859	46.55467987060547	1117.94580078125	-301.6952819824219	36.51226425170898	1201.086181640625	-407.8392639160156	45.19048690795898	1068.164428710938	
590	5.89	-471.3436889648438	1004.756652832031	1038.550537109375	-391.9091491699219	977.697265625	884.7552490234375	-418.1802368164062	1067.827514648438	968.8798217773438	-178.0924224853516	1244.2626953125	1066.21044921875	-428.7070617675781	1187.660522460938	970.72900390625	-376.9649963378906	1431.775146484375	978.8185424804688	-235.0622100830078	1344.778930664062	1041.490600585938	-454.826171875	1294.302856445312	1030.731079101562	-354.8970031738281	1398.135375976562	875.4271240234375	-250.3307800292969	1403.131469726562	861.2734375	-257.9897155761719	1289.424560546875	777.6455078125	-267.9503173828125	1086.981689453125	769.2846069335938	-352.9372863769531	1079.835083007812	791.456298828125	-240.8374633789062	863.2222900390625	853.6388549804688	-226.2870635986328	853.3843994140625	784.8287353515625	-255.8826293945312	982.8649291992188	769.2046508789062	-244.0415649414062	675.8766479492188	850.8054809570312	-225.4761352539062	765.1072998046875	786.6405639648438	-214.7937622070312	764.0462646484375	852.16064453125	-369.2139282226562	1407.47412109375	1150.966918945312	-401.3986206054688	1351.98681640625	1209.942138671875	-432.3646850585938	1097.74609375	1290.154418945312	-415.9230651855469	1071.27099609375	1201.93408203125	-292.07568359375	909.35693359375	1364.697631835938	-370.9125671386719	898.4739990234375	1396.010620117188	-415.7066040039062	1039.28955078125	1328.232177734375	-255.3466339111328	737.5994873046875	1423.334228515625	-261.5418395996094	813.4431762695312	1431.614379882812	-330.322509765625	801.4597778320312	1439.490966796875	-382.4109802246094	1579.671508789062	1072.420166015625	-177.8578033447266	1626.743896484375	1033.488647460938	-214.6040954589844	1616.347045898438	1117.850708007812	-323.0462036132812	1586.705688476562	940.29248046875	-275.8697814941406	935.0859985351562	838.3271484375	-424.5639038085938	964.3999633789062	1180.865234375	-285.8067321777344	968.091064453125	1169.501708984375	-185.5426940917969	951.47119140625	940.4107055664062	-107.3029937744141	498.2646484375	956.8746948242188	-149.7200317382812	630.4038696289062	915.41845703125	-381.4749450683594	162.143310546875	830.382080078125	-232.6063385009766	320.9046936035156	887.9866333007812	-290.4757080078125	55.53712463378906	985.8854370117188	-363.3264465332031	83.71804046630859	976.1866455078125	-300.5522155761719	87.12922668457031	885.0307006835938	-447.2119445800781	189.1893920898438	850.0821533203125	-353.0179748535156	493.8424987792969	1187.896850585938	-361.1724243164062	759.850341796875	1214.928466796875	-384.1725769042969	46.24246978759766	1136.485595703125	-333.9791259765625	370.1885375976562	1182.961303710938	-184.9988403320312	45.50394058227539	1179.17822265625	-219.0835113525391	46.56634521484375	1117.975219726562	-301.7219543457031	36.44496154785156	1201.122314453125	-407.8207702636719	45.19990539550781	1068.166748046875	
591	5.9	-470.2572631835938	1004.867309570312	1041.776489257812	-391.2936401367188	977.4435424804688	887.8023071289062	-417.2397766113281	1067.913696289062	972.2355346679688	-176.8244934082031	1244.333740234375	1068.384155273438	-427.9928588867188	1187.472900390625	974.4454956054688	-376.5741271972656	1431.6689453125	982.4188842773438	-234.0256652832031	1344.813598632812	1044.046020507812	-453.6195068359375	1293.882080078125	1034.728637695312	-355.215087890625	1398.026245117188	878.788330078125	-250.7749176025391	1403.059204101562	863.9031372070312	-258.4916687011719	1289.31884765625	780.3512573242188	-266.95361328125	1087.004028320312	772.1842651367188	-351.9746398925781	1079.260986328125	793.7974853515625	-239.7311553955078	862.93798828125	856.1079711914062	-224.1694183349609	853.5762939453125	787.3973999023438	-254.2923889160156	982.8750610351562	771.8642578125	-241.9222412109375	675.4365844726562	851.3206176757812	-222.7884063720703	765.4074096679688	788.4762573242188	-213.3243713378906	763.8424682617188	854.263916015625	-367.2075500488281	1407.349365234375	1154.541015625	-398.9257202148438	1351.590209960938	1213.650390625	-427.3488464355469	1097.3056640625	1294.688842773438	-411.4691772460938	1070.705200195312	1206.369262695312	-285.4776916503906	909.7741088867188	1368.472045898438	-363.9495544433594	898.7262573242188	1400.592163085938	-410.0187377929688	1039.081909179688	1332.786376953125	-247.6898040771484	738.3668823242188	1427.50927734375	-253.9893341064453	814.2603759765625	1435.525390625	-322.6861572265625	802.0684814453125	1444.070678710938	-380.7806701660156	1579.888916015625	1076.34326171875	-176.4972381591797	1626.349487304688	1035.437377929688	-212.4717102050781	1615.96435546875	1120.164428710938	-322.7050476074219	1586.903076171875	943.6008911132812	-275.2922058105469	935.1458740234375	840.657958984375	-423.1634826660156	964.4940795898438	1183.857543945312	-284.4990844726562	968.1723022460938	1172.141479492188	-184.7943725585938	951.345458984375	942.8252563476562	-106.0911636352539	498.1027221679688	959.4808959960938	-148.9598236083984	630.1217651367188	917.6828002929688	-376.4673461914062	155.8241119384766	839.6709594726562	-229.8009338378906	317.9138488769531	893.6526489257812	-279.7168273925781	55.80508041381836	995.78369140625	-353.7232666015625	81.12514495849609	986.8427734375	-292.8435363769531	84.35527038574219	894.5979614257812	-443.0022888183594	181.1329650878906	859.6560668945312	-353.4505004882812	493.6385192871094	1189.033203125	-360.2829284667969	759.7557983398438	1217.420776367188	-384.1769104003906	46.16573333740234	1136.487182617188	-334.4443359375	370.0612182617188	1183.668823242188	-185.0989990234375	45.49022674560547	1179.235107421875	-219.0618591308594	46.60925674438477	1118.0048828125	-301.7611694335938	36.36423873901367	1201.163696289062	-407.8073120117188	45.19728469848633	1068.179931640625	
592	5.91	-469.1915588378906	1004.99560546875	1044.921508789062	-390.6944885253906	977.260498046875	890.7515869140625	-416.3330993652344	1067.976440429688	975.489013671875	-175.60400390625	1244.422607421875	1070.581787109375	-427.2438354492188	1187.337524414062	977.997314453125	-376.1417236328125	1431.603149414062	985.8714599609375	-233.0222930908203	1344.868286132812	1046.592651367188	-452.47607421875	1293.558349609375	1038.5732421875	-355.3811950683594	1397.9599609375	882.0365600585938	-251.0525970458984	1403.0361328125	866.5586547851562	-258.654052734375	1289.29541015625	783.0635375976562	-265.7890930175781	1087.058837890625	774.7738647460938	-350.8036193847656	1078.808349609375	795.9956665039062	-238.340576171875	862.65576171875	858.053466796875	-222.3763580322266	853.6932373046875	789.3187255859375	-252.7322692871094	982.90087890625	774.1307373046875	-239.9870910644531	675.0269165039062	851.5628662109375	-220.7275238037109	765.6067504882812	789.7711181640625	-211.7685546875	763.5877075195312	855.6618041992188	-365.2602844238281	1407.297241210938	1158.008544921875	-396.5604553222656	1351.25634765625	1217.215087890625	-422.5700073242188	1096.853149414062	1298.781494140625	-407.1733093261719	1070.218383789062	1210.377319335938	-279.0809326171875	910.2396240234375	1371.809814453125	-357.1976928710938	898.9434814453125	1404.640380859375	-404.6060485839844	1038.839477539062	1336.86572265625	-240.1115264892578	739.1945190429688	1431.195922851562	-246.6038360595703	815.154052734375	1438.981811523438	-315.2489624023438	802.6825561523438	1448.125122070312	-379.2484130859375	1580.111328125	1080.07421875	-175.2670593261719	1626.063232421875	1037.254638671875	-210.4928436279297	1615.724365234375	1122.331298828125	-322.4112854003906	1587.0556640625	946.7342529296875	-274.7298583984375	935.2283935546875	842.845947265625	-421.7648620605469	964.6053466796875	1186.723388671875	-283.1123657226562	968.265380859375	1174.676635742188	-184.0530395507812	951.25634765625	945.1136474609375	-105.1681900024414	497.9071655273438	961.7421264648438	-148.3474731445312	629.838623046875	919.6926879882812	-371.4478454589844	149.7728118896484	848.3209838867188	-227.2147521972656	315.0556640625	898.7974853515625	-269.0569152832031	55.95109176635742	1004.437683105469	-344.1001892089844	78.49674987792969	996.4388427734375	-285.2219543457031	81.75471496582031	903.0879516601562	-438.7387084960938	173.2344055175781	868.7916870117188	-353.7598571777344	493.4544982910156	1190.143798828125	-359.2931823730469	759.6658935546875	1219.827880859375	-384.1853942871094	46.07630157470703	1136.502807617188	-334.8612670898438	369.9213256835938	1184.336547851562	-185.1966094970703	45.48620223999023	1179.287963867188	-219.0219116210938	46.67607498168945	1118.034057617188	-301.8105163574219	36.27512359619141	1201.207763671875	-407.7997436523438	45.18386459350586	1068.20166015625	
